<svg id="レイヤー_1" data-name="レイヤー 1" xmlns="http://www.w3.org/2000/svg" viewBox="0 0 30 24.08"><defs><style>.cls-1{fill:#231815;}.cls-2{fill:none;}.cls-3{fill:#070001;}</style></defs><g id="レイヤー_2" data-name="レイヤー 2"><g id="制作レイヤー"><path class="cls-1" d="M8.24,17.5A5.14,5.14,0,0,0,9,16.61l.24-.39a4.59,4.59,0,0,0,.49-1.52l.05-4.83H7.31v.57a2.51,2.51,0,0,0-.7-.42,3.46,3.46,0,0,0-1.19-.24,4.44,4.44,0,0,0-1.72.35,4.54,4.54,0,0,0-1.4.94,4.36,4.36,0,0,0-1,1.39,4.39,4.39,0,0,0,1,4.79,4.42,4.42,0,0,0,1.4.94,5.31,5.31,0,0,0,.56.2c-1,1.12-2.29,2.12-2.92,3.52a4.5,4.5,0,0,0,0,3.42,4.29,4.29,0,0,0,1,1.4,4.58,4.58,0,0,0,1.41.94A4.24,4.24,0,0,0,5.44,28a4.39,4.39,0,0,0,4-2.69,4.41,4.41,0,0,0,0-3.42,4.34,4.34,0,0,0-2.33-2.34,3.57,3.57,0,0,0-.6-.21c.44-.49.86-1,1.31-1.46l.41-.41m-1,6.15a1.94,1.94,0,0,1-.16.75,1.81,1.81,0,0,1-.42.6,2.06,2.06,0,0,1-.6.41,1.8,1.8,0,0,1-.72.16A1.92,1.92,0,0,1,4,25a2,2,0,0,1,0-2.76,1.91,1.91,0,0,1,1.39-.54,1.83,1.83,0,0,1,.73.15,2,2,0,0,1,.6.43,2.11,2.11,0,0,1,.41.61h0a1.84,1.84,0,0,1,.16.73M4.05,15.53a1.84,1.84,0,0,1-.57-1.38,1.81,1.81,0,0,1,.58-1.38,1.88,1.88,0,0,1,1.36-.56,1.63,1.63,0,0,1,.72.15,2.24,2.24,0,0,1,.6.42,2,2,0,0,1,.42.62,1.9,1.9,0,0,1,.15.75,1.94,1.94,0,0,1-.16.75,2.3,2.3,0,0,1-.41.62,2,2,0,0,1-.6.42,1.83,1.83,0,0,1-.73.15A1.89,1.89,0,0,1,4,15.54" transform="translate(-1 -3.96)"/><path class="cls-1" d="M17.82,17.31a.28.28,0,0,1-.26-.11.57.57,0,0,1-.09-.32V12.25h1.94l.18-2.43h-2.1V4H14.22a4.62,4.62,0,0,0-1.61.28A4.06,4.06,0,0,0,11.33,5a3.31,3.31,0,0,0-.83,1.13,3.45,3.45,0,0,0-.28,1.41v12.2h2.42V12.25h1.94l.15-2.43H12.61V7.88A1.51,1.51,0,0,1,13,6.8a1.27,1.27,0,0,1,1-.4h1.08V17.19A2.71,2.71,0,0,0,15.69,19a2.26,2.26,0,0,0,1.9.79h2l-.18-2.42Z" transform="translate(-1 -3.96)"/><path class="cls-1" d="M29.05,4.11l-2.43.11v6.31a5.12,5.12,0,0,0-4.53-.26,5.05,5.05,0,0,0-2.66,2.66,5,5,0,0,0,0,3.88,5.54,5.54,0,0,0,1.07,1.6,5.18,5.18,0,0,0,1.59,1.07,4.94,4.94,0,0,0,3.81,0,5,5,0,0,0,1.61-1.05,5.23,5.23,0,0,0,1.14-1.57,4.89,4.89,0,0,0,.42-2ZM26.62,14.88a2.27,2.27,0,0,1-.2,1,3.06,3.06,0,0,1-.56.82,2.69,2.69,0,0,1-.82.55,2.76,2.76,0,0,1-2,0,2.67,2.67,0,0,1-1.38-1.37,2.42,2.42,0,0,1-.21-1,2.54,2.54,0,0,1,.21-1,2.7,2.7,0,0,1,1.39-1.39,2.41,2.41,0,0,1,1-.21h0a2.27,2.27,0,0,1,1,.18,2.63,2.63,0,0,1,.82.57,3.18,3.18,0,0,1,.55.85,2.54,2.54,0,0,1,.21,1" transform="translate(-1 -3.96)"/><rect class="cls-2" width="30" height="24.08"/><rect class="cls-3" x="27.81" y="13.6" width="2.19" height="2.19"/></g></g></svg>