<svg xmlns="http://www.w3.org/2000/svg" width="23" height="18.4" viewBox="0 0 23 18.4">
  <path id="logo-twitter" d="M39,66.18a9.67,9.67,0,0,1-2.71.733,4.672,4.672,0,0,0,2.076-2.568,9.476,9.476,0,0,1-3,1.126A4.75,4.75,0,0,0,31.923,64a4.68,4.68,0,0,0-4.718,4.643,4.466,4.466,0,0,0,.122,1.059A13.45,13.45,0,0,1,17.6,64.848a4.585,4.585,0,0,0-.642,2.334,4.631,4.631,0,0,0,2.108,3.867,4.672,4.672,0,0,1-2.146-.58v.057a4.665,4.665,0,0,0,3.785,4.552,4.828,4.828,0,0,1-1.243.163,4.523,4.523,0,0,1-.887-.086,4.716,4.716,0,0,0,4.411,3.225,9.564,9.564,0,0,1-5.861,1.989A9.726,9.726,0,0,1,16,80.3a13.353,13.353,0,0,0,7.223,2.1A13.227,13.227,0,0,0,36.661,69.184c0-.2-.005-.4-.015-.6A9.51,9.51,0,0,0,39,66.18Z" transform="translate(-16 -64)" fill="#fff"/>
</svg>
