<svg xmlns="http://www.w3.org/2000/svg" width="23" height="23" viewBox="0 0 23 23">
  <path id="logo-linkedin" d="M53.16,32h-19.2A1.876,1.876,0,0,0,32,33.791V53.029A2.024,2.024,0,0,0,33.965,55h19.19A1.921,1.921,0,0,0,55,53.029V33.791A1.763,1.763,0,0,0,53.16,32ZM39.129,51.172H35.835V40.927h3.295ZM37.6,39.369h-.024a1.791,1.791,0,1,1,.024,0Zm13.576,11.8H47.877v-5.6c0-1.342-.48-2.259-1.672-2.259a1.8,1.8,0,0,0-1.69,1.216,2.22,2.22,0,0,0-.114.809v5.835H41.107V40.927H44.4v1.426a3.336,3.336,0,0,1,2.972-1.665c2.163,0,3.8,1.426,3.8,4.5Z" transform="translate(-32 -32)" fill="#fff"/>
</svg>
